<mxfile host="app.diagrams.net" agent="Mozilla/5.0 (Windows NT 10.0; Win64; x64) AppleWebKit/537.36 (KHTML, like Gecko) Chrome/129.0.0.0 Safari/537.36" version="27.1.4">
  <diagram name="第 1 页" id="RCnvyBVjviqlg7Vbb6u8">
    <mxGraphModel dx="1554" dy="856" grid="1" gridSize="10" guides="1" tooltips="1" connect="1" arrows="1" fold="1" page="1" pageScale="1" pageWidth="2336" pageHeight="1654" math="0" shadow="0">
      <root>
        <mxCell id="0" />
        <mxCell id="1" parent="0" />
        <mxCell id="uTg2soy5fG2xS7olu24i-1" value="" style="rounded=0;whiteSpace=wrap;html=1;strokeWidth=1;fillColor=none;align=center;" vertex="1" parent="1">
          <mxGeometry x="360" y="490" width="200" height="410" as="geometry" />
        </mxCell>
        <mxCell id="uTg2soy5fG2xS7olu24i-2" value="&lt;b&gt;智能策略中心&lt;/b&gt;" style="text;html=1;align=center;verticalAlign=middle;whiteSpace=wrap;rounded=0;fontSize=14;" vertex="1" parent="1">
          <mxGeometry x="404.99999999999955" y="490" width="110" height="30" as="geometry" />
        </mxCell>
        <mxCell id="uTg2soy5fG2xS7olu24i-13" style="edgeStyle=orthogonalEdgeStyle;rounded=0;orthogonalLoop=1;jettySize=auto;html=1;exitX=0.5;exitY=1;exitDx=0;exitDy=0;entryX=0.5;entryY=0;entryDx=0;entryDy=0;" edge="1" parent="1" source="uTg2soy5fG2xS7olu24i-3" target="uTg2soy5fG2xS7olu24i-6">
          <mxGeometry relative="1" as="geometry" />
        </mxCell>
        <mxCell id="uTg2soy5fG2xS7olu24i-3" value="借助人工智能/机器学习技术分析数据生成数据安全访问控制策略，可以使用任何支持编程WASM的编程语言" style="rounded=0;whiteSpace=wrap;html=1;fillColor=none;verticalAlign=bottom;" vertex="1" parent="1">
          <mxGeometry x="380" y="545" width="160" height="95" as="geometry" />
        </mxCell>
        <mxCell id="uTg2soy5fG2xS7olu24i-4" value="&lt;font style=&quot;font-size: 13px;&quot;&gt;&lt;b style=&quot;&quot;&gt;智能策略引擎&lt;/b&gt;&lt;/font&gt;" style="text;html=1;align=center;verticalAlign=middle;whiteSpace=wrap;rounded=0;" vertex="1" parent="1">
          <mxGeometry x="415" y="548" width="90" height="30" as="geometry" />
        </mxCell>
        <mxCell id="uTg2soy5fG2xS7olu24i-16" style="edgeStyle=orthogonalEdgeStyle;rounded=0;orthogonalLoop=1;jettySize=auto;html=1;exitX=0.5;exitY=1;exitDx=0;exitDy=0;entryX=0.5;entryY=0;entryDx=0;entryDy=0;" edge="1" parent="1" source="uTg2soy5fG2xS7olu24i-5" target="uTg2soy5fG2xS7olu24i-14">
          <mxGeometry relative="1" as="geometry" />
        </mxCell>
        <mxCell id="uTg2soy5fG2xS7olu24i-5" value="借助人工智能/机器学习技术生成数据安全访问控制策略，可以使用任何支持编程WASM的编程语言" style="rounded=0;whiteSpace=wrap;html=1;fillColor=none;verticalAlign=bottom;" vertex="1" parent="1">
          <mxGeometry x="380" y="660" width="160" height="95" as="geometry" />
        </mxCell>
        <mxCell id="uTg2soy5fG2xS7olu24i-6" value="&lt;font style=&quot;font-size: 13px;&quot;&gt;&lt;b style=&quot;&quot;&gt;策略编译模块&lt;/b&gt;&lt;/font&gt;" style="text;html=1;align=center;verticalAlign=middle;whiteSpace=wrap;rounded=0;" vertex="1" parent="1">
          <mxGeometry x="415" y="660" width="90" height="30" as="geometry" />
        </mxCell>
        <mxCell id="uTg2soy5fG2xS7olu24i-7" value="" style="group" vertex="1" connectable="0" parent="1">
          <mxGeometry x="210" y="572.5" width="80" height="40" as="geometry" />
        </mxCell>
        <mxCell id="uTg2soy5fG2xS7olu24i-8" value="" style="group" vertex="1" connectable="0" parent="uTg2soy5fG2xS7olu24i-7">
          <mxGeometry width="80" height="40" as="geometry" />
        </mxCell>
        <mxCell id="uTg2soy5fG2xS7olu24i-9" value="" style="rounded=0;whiteSpace=wrap;html=1;strokeWidth=1;fillColor=none;align=center;" vertex="1" parent="uTg2soy5fG2xS7olu24i-8">
          <mxGeometry width="80" height="40" as="geometry" />
        </mxCell>
        <mxCell id="uTg2soy5fG2xS7olu24i-10" value="&lt;b&gt;原始数据&lt;/b&gt;" style="text;html=1;align=center;verticalAlign=middle;whiteSpace=wrap;rounded=0;" vertex="1" parent="uTg2soy5fG2xS7olu24i-8">
          <mxGeometry x="6" y="9" width="70" height="24" as="geometry" />
        </mxCell>
        <mxCell id="uTg2soy5fG2xS7olu24i-12" style="edgeStyle=orthogonalEdgeStyle;rounded=0;orthogonalLoop=1;jettySize=auto;html=1;exitX=1;exitY=0.5;exitDx=0;exitDy=0;entryX=0;entryY=0.5;entryDx=0;entryDy=0;" edge="1" parent="1" source="uTg2soy5fG2xS7olu24i-9" target="uTg2soy5fG2xS7olu24i-3">
          <mxGeometry relative="1" as="geometry">
            <mxPoint x="320" y="592.7142857142858" as="targetPoint" />
          </mxGeometry>
        </mxCell>
        <mxCell id="uTg2soy5fG2xS7olu24i-14" value="借助人工智能/机器学习技术生成数据安全访问控制策略，可以使用任何支持编程WASM的编程语言" style="rounded=0;whiteSpace=wrap;html=1;fillColor=none;verticalAlign=bottom;" vertex="1" parent="1">
          <mxGeometry x="380" y="780" width="160" height="95" as="geometry" />
        </mxCell>
        <mxCell id="uTg2soy5fG2xS7olu24i-15" value="&lt;font style=&quot;font-size: 13px;&quot;&gt;&lt;b style=&quot;&quot;&gt;WASM策略分发和管理模块&lt;/b&gt;&lt;/font&gt;" style="text;html=1;align=center;verticalAlign=middle;whiteSpace=wrap;rounded=0;" vertex="1" parent="1">
          <mxGeometry x="390" y="782" width="140" height="30" as="geometry" />
        </mxCell>
        <mxCell id="uTg2soy5fG2xS7olu24i-49" style="edgeStyle=orthogonalEdgeStyle;rounded=0;orthogonalLoop=1;jettySize=auto;html=1;exitX=0.5;exitY=1;exitDx=0;exitDy=0;" edge="1" parent="1" source="uTg2soy5fG2xS7olu24i-17" target="uTg2soy5fG2xS7olu24i-48">
          <mxGeometry relative="1" as="geometry" />
        </mxCell>
        <mxCell id="uTg2soy5fG2xS7olu24i-17" value="" style="rounded=0;whiteSpace=wrap;html=1;strokeWidth=1;fillColor=none;align=center;" vertex="1" parent="1">
          <mxGeometry x="701" y="490" width="380" height="410" as="geometry" />
        </mxCell>
        <mxCell id="uTg2soy5fG2xS7olu24i-18" value="&lt;b&gt;智能策略执行环境&lt;/b&gt;" style="text;html=1;align=center;verticalAlign=middle;whiteSpace=wrap;rounded=0;fontSize=14;" vertex="1" parent="1">
          <mxGeometry x="746" y="490" width="125" height="30" as="geometry" />
        </mxCell>
        <mxCell id="uTg2soy5fG2xS7olu24i-34" style="edgeStyle=orthogonalEdgeStyle;rounded=0;orthogonalLoop=1;jettySize=auto;html=1;exitX=0.75;exitY=1;exitDx=0;exitDy=0;entryX=0;entryY=0;entryDx=0;entryDy=0;" edge="1" parent="1" source="uTg2soy5fG2xS7olu24i-20" target="uTg2soy5fG2xS7olu24i-24">
          <mxGeometry relative="1" as="geometry" />
        </mxCell>
        <mxCell id="uTg2soy5fG2xS7olu24i-20" value="借助人工智能/机器学习技术分析数据生成数据安全访问控制策略，可以使用任何支持编程WASM的编程语言" style="rounded=0;whiteSpace=wrap;html=1;fillColor=none;verticalAlign=bottom;" vertex="1" parent="1">
          <mxGeometry x="721" y="664" width="160" height="95" as="geometry" />
        </mxCell>
        <mxCell id="uTg2soy5fG2xS7olu24i-21" value="&lt;font style=&quot;font-size: 13px;&quot;&gt;&lt;b style=&quot;&quot;&gt;WASM智能数据策略&lt;/b&gt;&lt;/font&gt;" style="text;html=1;align=center;verticalAlign=middle;whiteSpace=wrap;rounded=0;" vertex="1" parent="1">
          <mxGeometry x="756" y="667" width="95" height="30" as="geometry" />
        </mxCell>
        <mxCell id="uTg2soy5fG2xS7olu24i-23" value="借助人工智能/机器学习技术生成数据安全访问控制策略，可以使用任何支持编程WASM的编程语言" style="rounded=0;whiteSpace=wrap;html=1;fillColor=none;verticalAlign=bottom;" vertex="1" parent="1">
          <mxGeometry x="816" y="779" width="160" height="95" as="geometry" />
        </mxCell>
        <mxCell id="uTg2soy5fG2xS7olu24i-24" value="&lt;font style=&quot;font-size: 13px;&quot;&gt;&lt;b style=&quot;&quot;&gt;WASM运行时环境&lt;/b&gt;&lt;/font&gt;" style="text;html=1;align=center;verticalAlign=middle;whiteSpace=wrap;rounded=0;" vertex="1" parent="1">
          <mxGeometry x="838.5" y="779" width="115" height="30" as="geometry" />
        </mxCell>
        <mxCell id="uTg2soy5fG2xS7olu24i-28" style="edgeStyle=orthogonalEdgeStyle;rounded=0;orthogonalLoop=1;jettySize=auto;html=1;exitX=1;exitY=0.5;exitDx=0;exitDy=0;entryX=0;entryY=0.5;entryDx=0;entryDy=0;" edge="1" parent="1" source="uTg2soy5fG2xS7olu24i-14" target="uTg2soy5fG2xS7olu24i-20">
          <mxGeometry relative="1" as="geometry" />
        </mxCell>
        <mxCell id="uTg2soy5fG2xS7olu24i-32" value="宿主环境提供的实时的上下文信息，比如：用户信息，环境信息，数据信息" style="rounded=0;whiteSpace=wrap;html=1;fillColor=none;verticalAlign=bottom;" vertex="1" parent="1">
          <mxGeometry x="901" y="664" width="160" height="95" as="geometry" />
        </mxCell>
        <mxCell id="uTg2soy5fG2xS7olu24i-33" value="&lt;font style=&quot;font-size: 13px;&quot;&gt;&lt;b style=&quot;&quot;&gt;上下文信息提供者&lt;/b&gt;&lt;/font&gt;" style="text;html=1;align=center;verticalAlign=middle;whiteSpace=wrap;rounded=0;" vertex="1" parent="1">
          <mxGeometry x="923.5" y="667" width="115" height="30" as="geometry" />
        </mxCell>
        <mxCell id="uTg2soy5fG2xS7olu24i-35" style="edgeStyle=orthogonalEdgeStyle;rounded=0;orthogonalLoop=1;jettySize=auto;html=1;exitX=0.25;exitY=1;exitDx=0;exitDy=0;entryX=0.889;entryY=0;entryDx=0;entryDy=0;entryPerimeter=0;" edge="1" parent="1" source="uTg2soy5fG2xS7olu24i-32" target="uTg2soy5fG2xS7olu24i-24">
          <mxGeometry relative="1" as="geometry" />
        </mxCell>
        <mxCell id="uTg2soy5fG2xS7olu24i-37" value="" style="group" vertex="1" connectable="0" parent="1">
          <mxGeometry x="590" y="570.5" width="80" height="40" as="geometry" />
        </mxCell>
        <mxCell id="uTg2soy5fG2xS7olu24i-38" value="" style="group" vertex="1" connectable="0" parent="uTg2soy5fG2xS7olu24i-37">
          <mxGeometry width="80" height="40" as="geometry" />
        </mxCell>
        <mxCell id="uTg2soy5fG2xS7olu24i-39" value="" style="rounded=0;whiteSpace=wrap;html=1;strokeWidth=1;fillColor=none;align=center;" vertex="1" parent="uTg2soy5fG2xS7olu24i-38">
          <mxGeometry width="80" height="40" as="geometry" />
        </mxCell>
        <mxCell id="uTg2soy5fG2xS7olu24i-40" value="&lt;b&gt;加密数据&lt;/b&gt;" style="text;html=1;align=center;verticalAlign=middle;whiteSpace=wrap;rounded=0;" vertex="1" parent="uTg2soy5fG2xS7olu24i-38">
          <mxGeometry x="6" y="9" width="70" height="24" as="geometry" />
        </mxCell>
        <mxCell id="uTg2soy5fG2xS7olu24i-44" style="edgeStyle=orthogonalEdgeStyle;rounded=0;orthogonalLoop=1;jettySize=auto;html=1;exitX=0.5;exitY=1;exitDx=0;exitDy=0;entryX=0.5;entryY=0;entryDx=0;entryDy=0;" edge="1" parent="1" source="uTg2soy5fG2xS7olu24i-42" target="uTg2soy5fG2xS7olu24i-32">
          <mxGeometry relative="1" as="geometry" />
        </mxCell>
        <mxCell id="uTg2soy5fG2xS7olu24i-42" value="宿主环境提供的实时的上下文信息，比如：用户信息，环境信息，数据信息" style="rounded=0;whiteSpace=wrap;html=1;fillColor=none;verticalAlign=bottom;" vertex="1" parent="1">
          <mxGeometry x="901" y="543" width="160" height="95" as="geometry" />
        </mxCell>
        <mxCell id="uTg2soy5fG2xS7olu24i-43" value="&lt;font style=&quot;font-size: 13px;&quot;&gt;&lt;b style=&quot;&quot;&gt;数据访问服务/接口&lt;/b&gt;&lt;/font&gt;" style="text;html=1;align=center;verticalAlign=middle;whiteSpace=wrap;rounded=0;" vertex="1" parent="1">
          <mxGeometry x="923.5" y="546" width="115" height="30" as="geometry" />
        </mxCell>
        <mxCell id="uTg2soy5fG2xS7olu24i-45" value="宿主环境提供的功能，比如数据请求，数据加解密，生成审计日志。" style="rounded=0;whiteSpace=wrap;html=1;fillColor=none;verticalAlign=bottom;" vertex="1" parent="1">
          <mxGeometry x="721" y="543" width="160" height="95" as="geometry" />
        </mxCell>
        <mxCell id="uTg2soy5fG2xS7olu24i-46" value="&lt;font style=&quot;font-size: 13px;&quot;&gt;&lt;b style=&quot;&quot;&gt;安全操作执行器&lt;/b&gt;&lt;/font&gt;" style="text;html=1;align=center;verticalAlign=middle;whiteSpace=wrap;rounded=0;" vertex="1" parent="1">
          <mxGeometry x="743.5" y="546" width="115" height="30" as="geometry" />
        </mxCell>
        <mxCell id="uTg2soy5fG2xS7olu24i-47" style="edgeStyle=orthogonalEdgeStyle;rounded=0;orthogonalLoop=1;jettySize=auto;html=1;exitX=1;exitY=0.5;exitDx=0;exitDy=0;" edge="1" parent="1" source="uTg2soy5fG2xS7olu24i-39" target="uTg2soy5fG2xS7olu24i-45">
          <mxGeometry relative="1" as="geometry" />
        </mxCell>
        <mxCell id="uTg2soy5fG2xS7olu24i-48" value="&lt;b&gt;安全合规数据&lt;/b&gt;" style="text;html=1;align=center;verticalAlign=middle;whiteSpace=wrap;rounded=0;" vertex="1" parent="1">
          <mxGeometry x="849" y="950" width="84" height="24" as="geometry" />
        </mxCell>
      </root>
    </mxGraphModel>
  </diagram>
</mxfile>
